<svg width="100" height="37" viewBox="0 0 100 37" fill="none" xmlns="http://www.w3.org/2000/svg">
<g clip-path="url(#clip0_8_256)">
<path d="M19.6075 4.30369C20.5268 4.30369 21.2721 3.55933 21.2721 2.6411C21.2721 1.72288 20.5268 0.978516 19.6075 0.978516C18.6881 0.978516 17.9429 1.72288 17.9429 2.6411C17.9429 3.55933 18.6881 4.30369 19.6075 4.30369Z" fill="#5D2B9E"/>
<path d="M27.6477 0.352051V2.63526C27.6474 4.13914 27.2246 5.61277 26.4274 6.88858C25.6302 8.16439 24.4906 9.1912 23.1381 9.85226C22.7614 10.0397 22.4449 10.3289 22.2245 10.687C22.0041 11.0451 21.8886 11.4577 21.8912 11.8781V15.4586C21.8912 15.8387 21.7962 16.2129 21.6147 16.5471C21.4333 16.8813 21.1711 17.1649 20.8521 17.3723C20.4813 17.6142 20.0481 17.7433 19.6052 17.7438H19.5054C19.5192 17.7159 19.5303 17.6867 19.5387 17.6567C19.677 17.2369 19.6885 16.7857 19.5719 16.3594C19.4737 15.9911 19.2848 15.6533 19.0223 15.3767C18.7599 15.1001 18.4323 14.8934 18.0694 14.7757L17.3192 14.5224V11.8781C17.3215 11.4578 17.206 11.0452 16.9856 10.6872C16.7652 10.3291 16.4488 10.0399 16.0723 9.85226C14.7204 9.19071 13.5813 8.16373 12.7845 6.88799C11.9877 5.61224 11.5651 4.13887 11.5647 2.63526V0.352051H13.9588C14.5395 0.3526 15.0963 0.583269 15.507 0.993428C15.9177 1.40359 16.1486 1.95972 16.1492 2.53978C16.1485 3.44174 16.4849 4.31149 17.0927 4.97865C17.6942 5.64464 18.5359 6.04481 19.4327 6.0912C19.9014 6.11425 20.3699 6.04195 20.8098 5.87868C21.2498 5.71541 21.6519 5.46457 21.9918 5.14139C22.3317 4.8182 22.6023 4.42942 22.7872 3.99861C22.9721 3.56781 23.0674 3.10398 23.0674 2.63526V2.53355C23.0691 1.95441 23.3006 1.39955 23.7112 0.990617C24.1218 0.581685 24.678 0.352048 25.2578 0.352051L27.6477 0.352051Z" fill="#853DE2"/>
<path d="M5.14973 14.6426C6.06908 14.6426 6.81435 13.8982 6.81435 12.98C6.81435 12.0617 6.06908 11.3174 5.14973 11.3174C4.23038 11.3174 3.48511 12.0617 3.48511 12.98C3.48511 13.8982 4.23038 14.6426 5.14973 14.6426Z" fill="#03958C"/>
<path d="M19.5349 17.6459C19.5266 17.6759 19.5155 17.7051 19.5017 17.733C19.4788 17.7123 19.4518 17.6936 19.4269 17.6749C19.0672 17.4119 18.6377 17.261 18.1924 17.2411C17.8121 17.2214 17.4329 17.2969 17.0892 17.4607C16.7455 17.6245 16.4482 17.8716 16.2244 18.1793L15.7526 18.8248L13.2401 18.0091C12.8409 17.8766 12.4125 17.8582 12.0034 17.9562C11.5943 18.0541 11.2207 18.2644 10.925 18.5633C9.87854 19.6428 8.54991 20.4077 7.09005 20.7709C5.63019 21.1341 4.0976 21.0812 2.66634 20.6182L0.486328 19.9083L1.22616 17.6376C1.40603 17.086 1.79765 16.6283 2.31507 16.3648C2.83249 16.1014 3.43343 16.0537 3.98599 16.2323L4.08158 16.2635C4.54524 16.4139 5.03549 16.4647 5.52018 16.4125C6.00486 16.3603 6.47303 16.2064 6.89397 15.9608C7.3149 15.7152 7.6791 15.3835 7.96265 14.9875C8.2462 14.5914 8.44271 14.1399 8.53928 13.6627C8.89881 11.9254 7.81399 10.2109 6.12443 9.66294C5.85052 9.5747 5.59675 9.4333 5.37768 9.24687C5.15861 9.06044 4.97855 8.83264 4.84784 8.57654C4.71712 8.32044 4.63832 8.04108 4.61595 7.75449C4.59359 7.46791 4.6281 7.17973 4.7175 6.90649L5.45526 4.63574L7.63527 5.33316C9.05906 5.79736 10.325 6.64895 11.2909 7.79221C12.2568 8.93548 12.8843 10.3251 13.103 11.805C13.1632 12.2274 13.3402 12.6247 13.6141 12.9521C13.8879 13.2795 14.2478 13.5242 14.6533 13.6586L17.3196 14.522L18.0698 14.7649C18.4327 14.8826 18.7603 15.0892 19.0227 15.3659C19.2852 15.6425 19.4741 15.9803 19.5723 16.3486C19.6876 16.7753 19.6746 17.2265 19.5349 17.6459Z" fill="#04D5C9"/>
<path d="M10.5255 31.5693C11.4448 31.5693 12.1901 30.8249 12.1901 29.9067C12.1901 28.9885 11.4448 28.2441 10.5255 28.2441C9.60612 28.2441 8.86084 28.9885 8.86084 29.9067C8.86084 30.8249 9.60612 31.5693 10.5255 31.5693Z" fill="#B14A47"/>
<path d="M19.4977 17.7457C19.4988 17.7498 19.4988 17.7541 19.4977 17.7582C19.4701 17.7735 19.4437 17.7909 19.4187 17.8101C19.1753 17.9862 18.9691 18.2086 18.8118 18.4645C18.6545 18.7203 18.5493 19.0047 18.5022 19.3012C18.4551 19.5977 18.4671 19.9006 18.5373 20.1925C18.6076 20.4844 18.7348 20.7597 18.9116 21.0024L19.3751 21.6396L17.8185 23.7817C17.5694 24.1276 17.4222 24.5363 17.3936 24.9614C17.365 25.3866 17.456 25.8112 17.6564 26.1874C18.3471 27.5129 18.6546 29.0043 18.5444 30.4945C18.4343 31.9848 17.911 33.4149 17.033 34.6248L15.6842 36.468L13.8305 35.123C13.5872 34.9467 13.3812 34.7242 13.2241 34.4682C13.067 34.2123 12.9621 33.9279 12.9151 33.6314C12.8682 33.3349 12.8803 33.0321 12.9508 32.7402C13.0212 32.4484 13.1485 32.1733 13.3255 31.9307C13.8648 31.1894 14.0872 30.2646 13.9438 29.3595C13.8004 28.4545 13.3029 27.6435 12.5607 27.1048C11.8186 26.5661 10.8926 26.344 9.98644 26.4872C9.08031 26.6305 8.26826 27.1274 7.72894 27.8686C7.55255 28.112 7.3298 28.3183 7.07344 28.4755C6.81709 28.6328 6.53218 28.738 6.23505 28.785C5.93792 28.8321 5.63441 28.8201 5.34193 28.7497C5.04944 28.6794 4.77374 28.5521 4.53062 28.3751L2.6748 27.0301L4.01939 25.1869C4.89991 23.9779 6.10055 23.0381 7.48641 22.473C8.87226 21.908 10.3884 21.7401 11.8645 21.9883C12.2847 22.0623 12.7172 22.0173 13.1131 21.8584C13.5091 21.6996 13.8526 21.4333 14.1048 21.0896L15.7528 18.8251L16.2162 18.1878C16.4401 17.8801 16.7373 17.6331 17.081 17.4693C17.4247 17.3054 17.8039 17.2299 18.1843 17.2497C18.6296 17.2696 19.059 17.4205 19.4187 17.6835C19.4436 17.7021 19.4707 17.7208 19.4935 17.7416L19.4977 17.7457Z" fill="#FD6A65"/>
<path d="M28.3065 31.6919C29.2258 31.6919 29.9711 30.9475 29.9711 30.0293C29.9711 29.1111 29.2258 28.3667 28.3065 28.3667C27.3871 28.3667 26.6418 29.1111 26.6418 30.0293C26.6418 30.9475 27.3871 31.6919 28.3065 31.6919Z" fill="#B18823"/>
<path d="M36.1583 27.161L34.3046 28.506C34.0615 28.6829 33.7858 28.8103 33.4933 28.8806C33.2008 28.9509 32.8973 28.9629 32.6002 28.9159C32.303 28.8688 32.0181 28.7637 31.7618 28.6064C31.5054 28.4492 31.2827 28.2429 31.1063 27.9995C30.8392 27.6325 30.5024 27.3216 30.1151 27.0846C29.7277 26.8476 29.2974 26.6891 28.8488 26.6181C28.4001 26.5472 27.9418 26.5652 27.5001 26.6712C27.0584 26.7771 26.642 26.969 26.2745 27.2357C25.907 27.5024 25.5957 27.8388 25.3584 28.2257C25.1211 28.6125 24.9624 29.0423 24.8914 29.4904C24.8204 29.9385 24.8385 30.3962 24.9445 30.8374C25.0506 31.2786 25.2427 31.6945 25.5097 32.0615C25.6872 32.304 25.8151 32.579 25.886 32.8709C25.957 33.1628 25.9695 33.4658 25.923 33.7625C25.8765 34.0593 25.7718 34.3439 25.6149 34.6002C25.4581 34.8565 25.2521 35.0793 25.0089 35.256L23.1531 36.603L21.8064 34.7495C20.9278 33.5395 20.404 32.1089 20.2939 30.6182C20.1838 29.1275 20.4916 27.6357 21.183 26.3099C21.3838 25.9335 21.4751 25.5085 21.4464 25.0829C21.4178 24.6574 21.2703 24.2483 21.0209 23.9022L19.3749 21.6397L18.9115 21.0025C18.7346 20.7598 18.6074 20.4846 18.5372 20.1926C18.4669 19.9007 18.455 19.5978 18.5021 19.3013C18.5492 19.0048 18.6544 18.7205 18.8117 18.4646C18.9689 18.2087 19.1752 17.9864 19.4186 17.8102C19.4436 17.791 19.47 17.7736 19.4975 17.7583C19.4975 17.7583 19.4975 17.7583 19.4975 17.7583C19.4975 17.7874 19.5142 17.8185 19.5225 17.8496C19.6579 18.2711 19.9154 18.6431 20.2623 18.9186C20.5585 19.1586 20.91 19.3208 21.285 19.3904C21.6599 19.46 22.0464 19.4348 22.4091 19.3171L23.1551 19.0743L24.7117 21.2163C24.9641 21.5604 25.308 21.8269 25.7043 21.9858C26.1006 22.1446 26.5336 22.1894 26.9541 22.1151C28.43 21.8671 29.9458 22.0349 31.3316 22.5995C32.7173 23.1641 33.9181 24.1033 34.7992 25.3116L36.1583 27.161Z" fill="#FDC332"/>
<path d="M33.9202 14.8418C34.8396 14.8418 35.5849 14.0974 35.5849 13.1792C35.5849 12.261 34.8396 11.5166 33.9202 11.5166C33.0009 11.5166 32.2556 12.261 32.2556 13.1792C32.2556 14.0974 33.0009 14.8418 33.9202 14.8418Z" fill="#0163B1"/>
<path d="M38.5816 20.1122L36.4037 20.8179C34.9722 21.2811 33.4395 21.3343 31.9793 20.9715C30.5192 20.6086 29.1901 19.8442 28.1429 18.7651C27.8493 18.4668 27.4784 18.2562 27.0716 18.1569C26.6649 18.0575 26.2385 18.0733 25.8403 18.2026L23.1781 19.066L22.432 19.3089C22.0693 19.4266 21.6829 19.4518 21.3079 19.3822C20.933 19.3126 20.5814 19.1504 20.2853 18.9104C19.9383 18.6349 19.6809 18.2629 19.5454 17.8414C19.5454 17.8103 19.5267 17.7791 19.5205 17.7501H19.6057C20.0492 17.7476 20.4825 17.6164 20.8526 17.3723C21.1719 17.1648 21.4343 16.8808 21.6157 16.5462C21.7972 16.2116 21.8921 15.837 21.8917 15.4565V14.674L24.4105 13.8583C24.8162 13.7246 25.1762 13.4802 25.4499 13.1525C25.7235 12.8249 25.8998 12.4273 25.9587 12.0047C26.1799 10.5255 26.8095 9.13718 27.7768 7.99547C28.7441 6.85376 30.0108 6.00387 31.4347 5.54117L33.6127 4.83545L34.3608 7.09997C34.4503 7.37376 34.4848 7.66249 34.4623 7.94961C34.4399 8.23674 34.361 8.51663 34.2301 8.77325C34.0992 9.02987 33.919 9.25819 33.6996 9.44513C33.4802 9.63206 33.2261 9.77394 32.9518 9.86265C32.2399 10.0911 31.6178 10.5368 31.173 11.1371C30.7282 11.7374 30.4832 12.4619 30.4725 13.2086C30.4723 13.5024 30.5115 13.7949 30.5889 14.0783C30.7118 14.5287 30.9246 14.9497 31.2147 15.3158C31.5047 15.6819 31.8659 15.9856 32.2766 16.2086C32.6872 16.4316 33.1388 16.5693 33.6041 16.6134C34.0695 16.6575 34.5389 16.6071 34.9843 16.4653C35.2702 16.3717 35.5719 16.3355 35.8719 16.3587C36.172 16.3818 36.4645 16.464 36.7327 16.6003C37.0008 16.7366 37.2394 16.9245 37.4348 17.1532C37.6301 17.3818 37.7783 17.6468 37.8708 17.9327L38.5816 20.1122Z" fill="#018EFE"/>
<path d="M46.7431 19.5869C45.7688 19.5869 44.997 19.4039 44.4277 19.038C43.8645 18.682 43.442 18.1443 43.2314 17.5156C42.9917 16.7843 42.8767 16.0184 42.8911 15.2495V10.5559C42.8738 9.76652 42.9888 8.97976 43.2314 8.22776C43.4395 7.60145 43.863 7.06768 44.4277 6.71984C44.9956 6.36357 45.7674 6.18613 46.7431 6.18751C47.684 6.18751 48.4238 6.34355 48.9625 6.65563C49.4846 6.95152 49.8862 7.41889 50.0982 7.97713C50.3326 8.6116 50.4459 9.28379 50.4323 9.95938V11.0572H47.8309V9.83096C47.8326 9.54786 47.8165 9.26492 47.7828 8.98379C47.762 8.74707 47.6688 8.52231 47.5156 8.33961C47.4149 8.24683 47.2954 8.17647 47.165 8.13324C47.0347 8.09002 46.8965 8.07493 46.7598 8.08898C46.6187 8.07638 46.4765 8.09287 46.3421 8.13743C46.2077 8.18199 46.0841 8.25365 45.979 8.3479C45.8103 8.53485 45.7025 8.76809 45.67 9.01693C45.6245 9.31858 45.6028 9.62331 45.6053 9.92831V15.8626C45.6007 16.1846 45.6308 16.5061 45.695 16.8217C45.7373 17.06 45.8568 17.2782 46.0354 17.4431C46.2415 17.6021 46.4993 17.6802 46.7598 17.6626C46.8939 17.6759 47.0293 17.6604 47.1569 17.6171C47.2844 17.5739 47.401 17.5039 47.4989 17.412C47.6555 17.221 47.7515 16.9881 47.7745 16.743C47.813 16.449 47.8318 16.1529 47.8309 15.8564V14.5888H50.4323V15.6679C50.4447 16.3563 50.3345 17.0414 50.1066 17.6916C49.8993 18.2653 49.5047 18.7538 48.9854 19.0794C48.4551 19.4177 47.7077 19.5869 46.7431 19.5869Z" fill="white"/>
<path d="M53.7617 19.408V6.35986H56.6048L58.455 14.5988L60.4199 6.35986H63.1649V19.408H61.2167L61.0081 10.556L59.3394 19.408H57.6707L55.9164 10.5021L55.7287 19.408H53.7617Z" fill="white"/>
<path d="M66.6733 19.408V6.35986H71.8121V8.1659H69.3599V11.6868H71.8038V13.5509H69.3599V19.408H66.6733Z" fill="white"/>
<path d="M75.2998 19.408V6.35986H80.3492V8.19696H77.9867V11.6537H80.3492V13.5177H77.9867V17.602H80.3492V19.408H75.2998Z" fill="white"/>
<path d="M87.2947 19.5869C86.5906 19.6115 85.8915 19.459 85.2627 19.1436C84.7161 18.8438 84.2845 18.3735 84.0348 17.8056C83.7314 17.0829 83.5684 16.3098 83.5544 15.5271L85.8663 15.1356C85.8755 15.5891 85.9329 16.0404 86.0375 16.482C86.0973 16.7849 86.2421 17.0649 86.4552 17.2898C86.6462 17.4704 86.9015 17.5687 87.1653 17.5632C87.3015 17.5792 87.4396 17.5575 87.5642 17.5005C87.6888 17.4434 87.795 17.3533 87.8711 17.2401C87.9996 17.014 88.0645 16.758 88.0591 16.4986C88.0759 16.0092 87.9363 15.5271 87.6602 15.1211C87.3572 14.7086 87.0068 14.3326 86.616 14.0005L85.2398 12.8137C84.7663 12.4212 84.3625 11.9528 84.0452 11.428C83.7195 10.8469 83.5593 10.1889 83.5816 9.52441C83.5816 8.45008 83.8983 7.62501 84.5318 7.04918C85.1653 6.47335 86.0354 6.18613 87.1423 6.18751C87.7018 6.16688 88.2583 6.27685 88.7671 6.50856C89.1675 6.70324 89.5073 7.00169 89.7507 7.3723C89.9887 7.73089 90.1585 8.12962 90.2519 8.54882C90.3423 8.96557 90.3996 9.38874 90.4232 9.81439L88.1259 10.1541C88.1089 9.80313 88.0733 9.45328 88.0194 9.106C87.9889 8.84723 87.8878 8.6016 87.727 8.39554C87.644 8.30633 87.5417 8.23689 87.4278 8.19242C87.3139 8.14794 87.1913 8.12958 87.0692 8.13869C86.9322 8.1301 86.7953 8.15756 86.6725 8.21831C86.5496 8.27905 86.4451 8.37092 86.3696 8.4846C86.2187 8.71199 86.1395 8.97878 86.142 9.25099C86.1252 9.65365 86.2363 10.0514 86.4594 10.3882C86.7121 10.7289 87.0036 11.0396 87.3282 11.314L88.6626 12.476C89.2119 12.9462 89.6907 13.4917 90.0848 14.0958C90.496 14.7733 90.6992 15.555 90.6696 16.3453C90.6787 16.9243 90.5347 17.4957 90.2519 18.0023C89.9762 18.4917 89.5673 18.8943 89.072 19.1644C88.526 19.4543 87.9139 19.5998 87.2947 19.5869Z" fill="white"/>
<path d="M95.3606 19.4082V8.33169H93.3364V6.34961H100.069V8.33169H98.068V19.4082H95.3606Z" fill="white"/>
<path d="M48.3957 28.7301C48.3936 28.9015 48.381 29.0727 48.358 29.2427C48.3337 29.4379 48.2852 29.6295 48.2137 29.8131C48.1478 29.9831 48.0482 30.1384 47.9209 30.2699C47.8584 30.3338 47.7827 30.3836 47.699 30.4161C47.6153 30.4485 47.5255 30.4628 47.4357 30.458C47.3192 30.4647 47.2029 30.4416 47.0981 30.3909C46.9934 30.3402 46.9036 30.2636 46.8375 30.1686C46.6971 29.9608 46.5997 29.7276 46.551 29.4824C46.493 29.2102 46.4587 28.9337 46.4485 28.6557C46.4381 28.3787 46.4297 28.1576 46.4213 27.9943C45.9047 28.079 45.3923 28.1535 44.8904 28.2175C44.8757 28.3829 44.8444 28.5854 44.7984 28.8376C44.7531 29.0762 44.683 29.3097 44.5892 29.5341C44.4983 29.7486 44.3702 29.9459 44.2107 30.1169C44.1394 30.1953 44.0519 30.2577 43.9541 30.2998C43.8563 30.3418 43.7505 30.3627 43.6439 30.3608C43.5664 30.3643 43.4892 30.3492 43.419 30.3168C43.3487 30.2844 43.2874 30.2357 43.2402 30.1748C43.1385 30.0427 43.0633 29.8925 43.0185 29.7325C42.9678 29.5601 42.9369 29.3826 42.9265 29.2034C42.9161 29.0236 42.9119 28.8727 42.9119 28.7508C42.9113 28.3493 42.9434 27.9484 43.0081 27.552C43.0736 27.1579 43.1489 26.7652 43.234 26.3739C43.2779 26.1672 43.3343 25.9254 43.4075 25.6485C43.4807 25.3715 43.5665 25.0842 43.6711 24.7907C43.777 24.4927 43.8999 24.2008 44.0392 23.9165C44.1699 23.6423 44.3305 23.3831 44.5181 23.1435C44.69 22.9238 44.8995 22.7356 45.1372 22.5875C45.3681 22.4483 45.6343 22.3766 45.9047 22.3808C46.1543 22.3745 46.4007 22.4375 46.6158 22.5627C46.8217 22.6875 47.0014 22.8503 47.145 23.0422C47.3006 23.2505 47.4272 23.4785 47.5214 23.7201C47.6215 23.9706 47.7067 24.2266 47.7766 24.4869C47.8435 24.7473 47.9021 25.0015 47.9481 25.2496C47.9941 25.4976 48.0359 25.7187 48.0736 25.9109C48.1656 26.3725 48.2444 26.8396 48.3099 27.3123C48.3705 27.7824 48.3992 28.2561 48.3957 28.7301ZM46.3042 26.1383C46.3042 26.0536 46.3042 25.913 46.2875 25.7249C46.2772 25.5286 46.2534 25.3332 46.2164 25.14C46.1859 24.959 46.1303 24.7831 46.0511 24.6171C46.0284 24.5528 45.9868 24.4967 45.9317 24.4558C45.8766 24.415 45.8104 24.3913 45.7416 24.3877C45.6972 24.3923 45.6547 24.408 45.6181 24.4333C45.5815 24.4586 45.5521 24.4927 45.5325 24.5324C45.4607 24.6456 45.4031 24.7671 45.361 24.8941C45.3068 25.0534 45.2614 25.2156 45.225 25.3798C45.1874 25.5575 45.1518 25.727 45.1225 25.8903C45.0933 26.0536 45.0723 26.2024 45.0577 26.3346C45.0431 26.4669 45.0326 26.5599 45.0263 26.6157C45.4572 26.5799 45.8817 26.5269 46.3 26.4566L46.3042 26.1383Z" fill="#FDC332"/>
<path d="M53.7262 23.9288C53.7267 24.06 53.7141 24.1908 53.6885 24.3195C53.6669 24.4357 53.6213 24.5462 53.5546 24.6441C53.4882 24.7376 53.399 24.813 53.2952 24.8633C53.17 24.9199 53.0332 24.9468 52.8956 24.9418C52.7542 24.9523 52.6134 24.9151 52.496 24.8364C52.4116 24.7684 52.3496 24.6769 52.3182 24.5738C52.2845 24.4654 52.2683 24.3524 52.2701 24.2389C52.2701 24.119 52.2701 24.0053 52.2534 23.9019C52.246 23.8102 52.2182 23.7212 52.1718 23.6414C52.1459 23.6041 52.1102 23.5743 52.0686 23.5554C52.027 23.5364 51.9809 23.529 51.9354 23.5339C51.8266 23.5339 51.7387 23.6166 51.6697 23.78C51.5963 23.9633 51.5403 24.1529 51.5023 24.3464C51.4612 24.5513 51.4325 24.7584 51.4165 24.9666C51.4019 25.1734 51.3956 25.3078 51.3956 25.3801L51.6655 25.3429C51.7585 25.3318 51.8521 25.3263 51.9458 25.3264C52.0513 25.3265 52.1565 25.3376 52.2596 25.3594C52.3644 25.3791 52.4658 25.4132 52.5609 25.4607C52.6522 25.5038 52.7302 25.5701 52.7868 25.653C52.8481 25.7425 52.8788 25.849 52.8747 25.9569C52.8733 26.0223 52.8576 26.0867 52.8287 26.1455C52.7998 26.2044 52.7584 26.2564 52.7073 26.298C52.588 26.4013 52.4532 26.4857 52.3077 26.5482C52.1553 26.6149 51.9979 26.6702 51.837 26.7136C51.6801 26.7549 51.5546 26.7839 51.4604 26.7983C51.4814 27.2883 51.4918 27.7845 51.4918 28.2807C51.4918 28.7768 51.4814 29.2131 51.4604 29.6679C51.4533 29.8712 51.3707 30.0648 51.2282 30.2116C51.1567 30.2816 51.0712 30.3361 50.9772 30.3717C50.8832 30.4073 50.7827 30.4232 50.6822 30.4183C50.5742 30.4214 50.4671 30.398 50.3705 30.3501C50.2871 30.304 50.2156 30.2396 50.1613 30.162C50.1012 30.0812 50.0552 29.9911 50.0253 29.8953C49.9931 29.7953 49.9734 29.6919 49.9667 29.5872C49.929 29.1593 49.9018 28.7313 49.8788 28.3013C49.8558 27.8713 49.8516 27.4392 49.8579 27.0051C49.8095 27.0126 49.7605 27.016 49.7114 27.0154H49.5671C49.4618 27.0136 49.3569 27.0032 49.2533 26.9844C49.132 26.9639 49.0144 26.9263 48.9039 26.8728C48.797 26.8207 48.7 26.7508 48.6173 26.666C48.5778 26.6272 48.5468 26.5807 48.5263 26.5294C48.5058 26.4782 48.4962 26.4234 48.498 26.3683C48.4962 26.2955 48.5091 26.223 48.5361 26.1552C48.563 26.0874 48.6034 26.0256 48.6549 25.9735C48.7626 25.8638 48.8904 25.7754 49.0315 25.713C49.1794 25.6453 49.3355 25.5966 49.496 25.5682C49.6591 25.5393 49.8014 25.5186 49.9144 25.5042V25.3346C49.917 24.9591 49.9498 24.5844 50.0127 24.2141C50.0711 23.8291 50.1875 23.4549 50.3579 23.1039C50.5145 22.7728 50.7474 22.4826 51.0378 22.2563C51.3551 22.0235 51.7435 21.9053 52.1383 21.9214C52.3912 21.9143 52.6413 21.975 52.8622 22.0971C53.0607 22.2107 53.2303 22.3677 53.358 22.5561C53.4898 22.7505 53.5848 22.9669 53.6383 23.1949C53.6968 23.4353 53.7263 23.6816 53.7262 23.9288Z" fill="#FDC332"/>
<path d="M57.4668 26.3275C57.3793 26.3355 57.2911 26.3264 57.2071 26.3007C57.1359 26.2759 57.0626 26.2491 56.9977 26.2202L56.8029 26.1418C56.7362 26.1168 56.6645 26.1076 56.5935 26.115C56.4572 26.1186 56.3246 26.1593 56.2103 26.2326C56.0953 26.3047 55.9927 26.3946 55.9066 26.4987C55.8148 26.6073 55.7368 26.7265 55.6741 26.8536C55.6118 26.9788 55.5614 27.1093 55.5234 27.2436C55.4965 27.3713 55.4803 27.5011 55.4752 27.6315C55.4647 27.8048 55.4584 27.9925 55.4584 28.1906C55.4584 28.3887 55.448 28.5909 55.448 28.7766C55.4492 28.922 55.4422 29.0673 55.427 29.2119C55.427 29.3254 55.3998 29.4595 55.3726 29.6122C55.3441 29.7606 55.2984 29.9053 55.2364 30.0434C55.1795 30.1718 55.0969 30.2876 54.9935 30.3839C54.8866 30.4777 54.7471 30.5273 54.604 30.5221C54.4885 30.5236 54.376 30.4857 54.2857 30.4148C54.1904 30.3379 54.1132 30.2414 54.0595 30.1322C53.9934 30.0007 53.9428 29.8623 53.9087 29.7195C53.8683 29.5619 53.8376 29.402 53.8165 29.2408C53.7956 29.0696 53.7789 28.8983 53.7684 28.7291C53.7579 28.5599 53.7495 28.3969 53.7453 28.2443C53.7412 28.0916 53.7453 27.9513 53.7453 27.8316C53.7453 27.7119 53.7453 27.6026 53.7453 27.5242C53.7453 27.2745 53.7244 27.0249 53.7076 26.7731C53.6909 26.5214 53.6804 26.2718 53.6804 26.0221C53.6804 25.8674 53.6804 25.692 53.7014 25.5022C53.7143 25.3179 53.7545 25.1365 53.8207 24.9637C53.8827 24.8061 53.9809 24.6648 54.1076 24.551C54.2537 24.4306 54.4411 24.3701 54.6312 24.3818C54.7469 24.3801 54.8591 24.4213 54.9453 24.4974C55.0333 24.5795 55.1044 24.6776 55.1548 24.7862C55.2103 24.9014 55.2517 25.0226 55.2783 25.1473C55.3006 25.2603 55.314 25.3748 55.3181 25.4898C55.4735 25.2345 55.671 25.0065 55.9024 24.8151C56.1429 24.6333 56.4371 24.5341 56.7401 24.5324C56.9125 24.5255 57.0851 24.5415 57.2532 24.5799C57.4182 24.6172 57.5754 24.6821 57.7181 24.7718C57.8582 24.8603 57.9763 24.9788 58.0637 25.1184C58.1562 25.2693 58.2067 25.4415 58.2103 25.6177C58.2229 25.7151 58.2103 25.814 58.1737 25.9052C58.1371 25.9965 58.0776 26.0772 58.0009 26.1397C57.8486 26.2584 57.6609 26.3244 57.4668 26.3275Z" fill="#FDC332"/>
<path d="M60.2386 26.4914V26.8055C60.2386 26.915 60.2386 27.0121 60.228 27.1196C60.2175 27.2271 60.228 27.4027 60.228 27.6052C60.228 27.8078 60.228 28.0186 60.2047 28.2603C60.1814 28.5021 60.1666 28.7336 60.1348 28.9754C60.105 29.1998 60.0518 29.4207 59.9759 29.6346C59.9148 29.8144 59.8159 29.9798 59.6856 30.1202C59.6283 30.1828 59.5586 30.2334 59.4807 30.2689C59.4027 30.3045 59.3182 30.3242 59.2322 30.3269C59.1648 30.3303 59.0977 30.3173 59.0367 30.2892C58.9757 30.261 58.9227 30.2186 58.8826 30.1657C58.7771 30.0336 58.6974 29.8837 58.6474 29.7235C58.5817 29.5258 58.5363 29.3223 58.5118 29.1159C58.4822 28.8927 58.461 28.6757 58.4462 28.4649C58.4313 28.2541 58.4229 28.0516 58.4229 27.8842V27.0059C58.4229 26.7993 58.4228 26.5699 58.4462 26.3281C58.4695 26.0863 58.4864 25.8404 58.5267 25.5924C58.5632 25.3602 58.6221 25.1319 58.7025 24.9104C58.7659 24.7245 58.8684 24.5534 59.0034 24.4083C59.0632 24.3454 59.1361 24.2957 59.2173 24.2625C59.2984 24.2294 59.3858 24.2135 59.4738 24.2161C59.5692 24.2161 59.6625 24.2435 59.742 24.295C59.8215 24.3464 59.8837 24.4196 59.9208 24.5054C60.0296 24.7174 60.1067 24.9436 60.1497 25.177C60.1999 25.4285 60.2297 25.6835 60.2386 25.9396C60.2344 26.1834 60.2386 26.3694 60.2386 26.4914ZM60.1518 22.8645C60.1536 22.9597 60.1247 23.0529 60.0691 23.1311C60.0121 23.2121 59.9403 23.2821 59.8573 23.3378C59.7706 23.3981 59.6748 23.4448 59.5733 23.4762C59.4819 23.5069 59.3861 23.5229 59.2894 23.5238C59.1537 23.5266 59.0202 23.4899 58.9059 23.4184C58.8519 23.3816 58.8085 23.3318 58.7799 23.2739C58.7514 23.216 58.7386 23.1519 58.7428 23.0877C58.7408 22.9874 58.7696 22.8889 58.8254 22.8046C58.878 22.7236 58.9464 22.6533 59.0267 22.598C59.1106 22.5434 59.2029 22.5023 59.3 22.476C59.3963 22.4479 59.4962 22.4333 59.5967 22.4326C59.7303 22.4319 59.8618 22.4654 59.978 22.5298C60.037 22.5633 60.0848 22.6127 60.1156 22.6721C60.1465 22.7315 60.159 22.7983 60.1518 22.8645Z" fill="#FDC332"/>
<path d="M64.8361 26.2187C64.8367 26.2568 64.8332 26.2949 64.8256 26.3323C64.8196 26.3705 64.8091 26.4079 64.7942 26.4437C64.7322 26.6056 64.6273 26.7482 64.4904 26.8566C64.3539 26.9676 64.1812 27.0263 64.0043 27.0217C63.8755 27.0271 63.7487 26.9891 63.6448 26.9141C63.5408 26.8391 63.4659 26.7314 63.4322 26.6089C63.4166 26.5702 63.4087 26.5288 63.4092 26.4871C63.4098 26.4387 63.4063 26.3904 63.3987 26.3426V26.035C63.3898 25.9524 63.3642 25.8723 63.3233 25.7997C63.3024 25.7713 63.2745 25.7486 63.2422 25.7338C63.2099 25.719 63.1744 25.7126 63.1389 25.715C63.0661 25.7227 62.9964 25.7475 62.9354 25.7874C62.8745 25.8273 62.8243 25.8811 62.789 25.9442C62.6678 26.1116 62.5699 26.2942 62.4977 26.4871C62.4108 26.696 62.3408 26.9114 62.2882 27.1311C62.2441 27.3056 62.2189 27.4841 62.2127 27.6637C62.2127 27.769 62.2127 27.8991 62.2337 28.0518C62.2478 28.2016 62.2773 28.3496 62.3217 28.4936C62.3592 28.6252 62.4195 28.7495 62.4998 28.861C62.5319 28.9092 62.5757 28.9487 62.6274 28.9757C62.679 29.0028 62.7367 29.0166 62.7952 29.0158C62.9183 29.0158 63.0381 28.9767 63.1368 28.9044C63.2464 28.826 63.3494 28.739 63.4448 28.6443C63.5398 28.5576 63.6425 28.4688 63.7528 28.378C63.8589 28.2866 63.9953 28.2366 64.1363 28.2376C64.2164 28.2356 64.296 28.2519 64.3687 28.2852C64.4414 28.3185 64.5052 28.3679 64.5553 28.4296C64.6583 28.5527 64.7139 28.7077 64.7125 28.8672C64.7133 29.1058 64.6458 29.3398 64.5176 29.5422C64.3897 29.7509 64.2251 29.9354 64.0315 30.0872C63.8355 30.2404 63.6163 30.3623 63.3819 30.4485C63.165 30.5329 62.9342 30.5777 62.7009 30.5806C62.3486 30.5915 62.002 30.491 61.7119 30.2936C61.4413 30.1021 61.2179 29.853 61.0582 29.5649C60.8901 29.2634 60.77 28.9383 60.702 28.6009C60.6315 28.2752 60.595 27.9431 60.593 27.6101C60.5974 27.2135 60.6481 26.8187 60.7439 26.4334C60.842 26.0216 60.9986 25.6255 61.2091 25.2568C61.4112 24.9028 61.6859 24.5942 62.0158 24.3506C62.3553 24.1067 62.767 23.9797 63.1871 23.9893C63.4432 23.9823 63.6963 24.0451 63.9183 24.171C64.1209 24.2895 64.2941 24.451 64.4254 24.6437C64.5616 24.8451 64.6641 25.0668 64.7292 25.3001C64.7956 25.5319 64.8301 25.7715 64.8319 26.0123V26.1073C64.8379 26.1441 64.8393 26.1815 64.8361 26.2187Z" fill="#FDC332"/>
<path d="M69.9938 28.8073C69.9938 28.9353 69.9938 29.1025 69.9771 29.3089C69.9665 29.5116 69.9356 29.7128 69.885 29.9095C69.8406 30.0918 69.7602 30.2636 69.6484 30.4152C69.5955 30.4835 69.5264 30.5379 69.4472 30.5739C69.3681 30.6099 69.2812 30.6263 69.1942 30.6216C69.0786 30.6283 68.963 30.6087 68.8563 30.5644C68.7496 30.52 68.6547 30.452 68.5788 30.3657C68.4301 30.1867 68.3553 29.9589 68.3695 29.7279C68.1377 29.9271 67.8729 30.0856 67.5867 30.1964C67.3031 30.3082 67.0004 30.3657 66.695 30.3657C66.488 30.366 66.2843 30.3149 66.1026 30.2171C65.9153 30.1185 65.7467 29.9886 65.6045 29.8332C65.4607 29.6777 65.344 29.4999 65.2591 29.3068C65.1756 29.1244 65.1314 28.9269 65.1293 28.7268C65.1241 28.4011 65.2369 28.0841 65.4475 27.8331C65.6684 27.5709 65.934 27.3488 66.2324 27.1767C66.5436 26.9955 66.8752 26.8508 67.2204 26.7453C67.5252 26.6511 67.8375 26.5821 68.1539 26.5389C68.1539 26.5038 68.1539 26.4728 68.1539 26.4439C68.1563 26.4116 68.1563 26.3792 68.1539 26.3469C68.1631 26.1528 68.0972 25.9625 67.9697 25.8144C67.9041 25.7448 67.8238 25.6903 67.7344 25.6546C67.6451 25.619 67.549 25.603 67.4527 25.608C67.2929 25.6043 67.1343 25.6353 66.988 25.6988C66.8604 25.7589 66.7373 25.8279 66.6197 25.9052C66.5045 25.9795 66.3894 26.0476 66.2743 26.1116C66.1547 26.1728 66.0217 26.204 65.887 26.2024C65.7374 26.2061 65.592 26.1529 65.481 26.0538C65.4264 26.0057 65.3831 25.9465 65.3542 25.8801C65.3253 25.8138 65.3114 25.7421 65.3135 25.6699C65.3117 25.4406 65.3851 25.2169 65.5228 25.0321C65.6656 24.8379 65.8455 24.6731 66.0524 24.547C66.2673 24.4134 66.4997 24.3092 66.7431 24.2374C66.9645 24.1674 67.1951 24.1298 67.4276 24.126C67.6244 24.1259 67.8205 24.1495 68.0116 24.1962C68.2042 24.2385 68.3896 24.308 68.5621 24.4026C68.7344 24.4972 68.8922 24.6153 69.031 24.7535C69.1741 24.893 69.2897 25.0575 69.3721 25.2385C69.5035 25.5031 69.6086 25.7796 69.6861 26.0642C69.7651 26.3616 69.8259 26.6635 69.8682 26.9682C69.9122 27.2778 69.9415 27.5874 69.9561 27.895C69.9708 28.2025 69.9938 28.5163 69.9938 28.8073ZM68.2649 28.4667L68.2335 27.7422H68.1895C68.1756 27.7402 68.1615 27.7402 68.1476 27.7422C68.0274 27.7469 67.9086 27.7705 67.796 27.8124C67.6538 27.8588 67.5181 27.9226 67.392 28.0023C67.27 28.0782 67.1587 28.1698 67.0613 28.2748C66.9786 28.3576 66.9307 28.4682 66.9273 28.5844C66.9221 28.6254 66.9295 28.667 66.9486 28.7038C66.9676 28.7406 66.9974 28.7709 67.0341 28.7908C67.112 28.8267 67.1972 28.8443 67.2832 28.8424C67.459 28.839 67.632 28.7974 67.7897 28.7206C67.9524 28.6441 68.111 28.5594 68.2649 28.4667Z" fill="#FDC332"/>
</g>
<defs>
<clipPath id="clip0_8_256">
<rect width="100" height="36.2954" fill="white" transform="translate(0 0.352051)"/>
</clipPath>
</defs>
</svg>
