<svg width="138" height="97" viewBox="0 0 138 97" fill="none" xmlns="http://www.w3.org/2000/svg">
<path d="M137.08 48.3613C137.08 50.4813 136.24 52.508 134.733 54.0147L94.3733 94.3746C92.8533 95.908 90.8 96.7213 88.72 96.7213C87.6933 96.7213 86.6533 96.5213 85.6533 96.108C82.6667 94.868 80.72 91.9466 80.72 88.7213V67.6666L54.0133 94.3746C52.4933 95.908 50.44 96.7213 48.36 96.7213C47.3333 96.7213 46.2933 96.5213 45.2933 96.108C42.3067 94.868 40.36 91.9466 40.36 88.7213V67.6666L13.6533 94.3746C12.12 95.908 10.08 96.7213 8 96.7213C6.97333 96.7213 5.93333 96.5213 4.93333 96.108C1.94666 94.868 0 91.9466 0 88.7213V7.99998C0 4.76132 1.94666 1.84132 4.93333 0.601326C5.93333 0.201324 6.97333 -1.52588e-05 8 -1.52588e-05C10.08 -1.52588e-05 12.12 0.814651 13.6533 2.33332L40.36 29.0413V7.99998C40.36 4.76132 42.3067 1.84132 45.2933 0.601326C46.2933 0.201324 47.3333 -1.52588e-05 48.36 -1.52588e-05C50.44 -1.52588e-05 52.4933 0.814651 54.0133 2.33332L80.72 29.0413V7.99998C80.72 4.76132 82.6667 1.84132 85.6533 0.601326C86.6533 0.201324 87.6933 -1.52588e-05 88.72 -1.52588e-05C90.8 -1.52588e-05 92.8533 0.814651 94.3733 2.33332L134.733 42.6946C136.24 44.2013 137.08 46.2413 137.08 48.3613Z" fill="white"/>
<path d="M8.00024 88.7178V7.99777L48.3602 48.3578L8.00024 88.7178Z" fill="#FD6A65"/>
<path d="M48.3604 88.7178V7.99777L88.7204 48.3578L48.3604 88.7178Z" fill="#FDC332"/>
<path d="M88.7207 88.7178V7.99777L129.081 48.3578L88.7207 88.7178Z" fill="#853DE2"/>
</svg>
