<svg width="322" height="141" viewBox="0 0 322 141" fill="none" xmlns="http://www.w3.org/2000/svg">
<path d="M119.711 92.5563C120.08 92.8213 120.465 93.0524 120.872 93.2508C121.721 93.666 122.64 93.8252 123.756 93.7522C124.136 93.2629 124.437 92.6699 124.674 91.9496C125.065 90.7523 125.316 89.4546 125.418 88.0998C125.535 86.5431 125.553 85.2209 125.473 84.1744C125.417 83.4366 125.303 82.6059 125.137 81.7056C125.126 81.6478 125.115 81.5926 125.101 81.5362C124.406 81.9287 123.74 82.4187 123.112 82.9956C122.265 83.77 121.484 84.5931 120.782 85.4463C120.479 85.8138 120.192 86.1774 119.926 86.5345L119.711 92.5563ZM129.08 129.569C124.505 129.919 120.172 129.149 116.198 127.285C115.494 126.954 114.807 126.595 114.134 126.209C111.541 129.114 108.078 130.801 104.066 131.108C100.332 131.394 96.8987 129.815 94.3986 126.662C92.8612 124.728 91.5745 122.288 90.5775 119.415C89.7236 116.959 89.0101 114.22 88.4582 111.278C87.9383 108.51 87.5275 105.767 87.2373 103.131C86.9573 100.581 86.7401 98.28 86.5833 96.2316L86.2616 92.0281C86.0443 89.1886 85.8457 86.3489 85.672 83.5086C85.4948 80.6723 85.3378 77.7895 85.1998 74.8616C85.1058 73.6827 84.9265 71.616 84.6757 68.8602C84.4122 66.0043 84.187 62.7687 84.0034 59.2444C83.8156 55.6993 83.7294 52.0141 83.7456 48.2974C83.76 44.3301 84.0618 40.5978 84.6381 37.2087C85.292 33.3671 86.4328 30.0383 88.0307 27.3193C90.302 23.4574 93.8656 21.0657 98.0687 20.5769C98.1602 20.5661 98.2505 20.5567 98.3422 20.5497C101.835 20.2824 105.083 21.3409 107.735 23.6112C109.677 25.281 111.336 27.4639 112.673 30.1079C113.811 32.3582 114.767 34.8905 115.52 37.6403C116.215 40.1838 116.78 42.766 117.202 45.3154C117.472 46.9498 117.703 48.551 117.89 50.0995C119.111 49.3138 120.371 48.6062 121.662 47.9849C124.283 46.7204 126.923 45.9821 129.511 45.784C134.498 45.4024 138.941 46.4355 142.718 48.8542C146.078 51.0104 148.876 53.8757 151.03 57.3714C152.996 60.5623 154.492 64.0946 155.484 67.8764C156.407 71.399 156.997 74.8074 157.242 78.0089C157.446 80.6773 157.473 83.7047 157.319 87.0092C157.168 90.3047 156.792 93.7359 156.201 97.2009C155.595 100.753 154.697 104.279 153.532 107.677C152.287 111.312 150.638 114.666 148.632 117.645C146.471 120.859 143.829 123.547 140.781 125.627C137.449 127.903 133.511 129.23 129.08 129.569Z" fill="white"/>
<path d="M177.591 72.1869C177.456 74.5919 177.341 76.9967 177.246 79.401C177.157 81.6042 177.197 83.8399 177.366 86.0495C177.447 87.1047 177.594 88.3045 177.804 89.6167C177.951 90.5521 178.197 91.3988 178.559 92.2155C178.588 92.2807 178.618 92.3457 178.647 92.4071C178.948 92.0311 179.163 91.5831 179.318 91.0187C179.64 89.8354 179.81 88.5315 179.821 87.1413C179.832 85.3482 179.782 83.7032 179.672 82.2648C179.42 78.9765 178.943 75.7204 178.252 72.5879C178.091 71.8519 177.931 71.1133 177.771 70.3709C177.713 70.9765 177.653 71.581 177.591 72.1869ZM181.529 125.926C175.013 126.425 169.264 125.471 164.44 123.087C159.717 120.753 155.785 117.429 152.756 113.202C149.925 109.253 147.771 104.678 146.357 99.6077C145.041 94.8866 144.18 89.9761 143.8 85.0101C143.386 79.5977 143.605 74.1107 144.446 68.6994C144.629 67.1139 144.99 65.0958 145.546 62.5363C146.141 59.7843 146.992 57.0103 148.073 54.3009C149.234 51.392 150.674 48.7837 152.349 46.5439C155.543 42.2722 159.34 41.1373 161.962 40.9367C166.234 40.6097 169.153 42.1274 170.85 43.4593C172.691 44.9049 174.202 46.7536 175.34 48.9539C175.834 49.9064 176.256 50.8968 176.605 51.9178C177.091 50.4575 177.743 49.0793 178.554 47.8074C179.729 45.9652 181.235 44.4106 183.032 43.1818C185.067 41.7888 187.393 40.9809 189.944 40.7857C193.479 40.5152 196.86 41.5523 199.722 43.7841C201.944 45.5235 203.851 47.7872 205.401 50.5185C206.728 52.8665 207.88 55.5159 208.828 58.3993C209.698 61.0467 210.445 63.7072 211.048 66.3064C211.651 68.9156 212.117 71.4205 212.433 73.7573C212.74 76.0324 212.94 77.8181 213.047 79.213C213.428 84.1889 213.306 89.2283 212.686 94.1936C212.017 99.5092 210.547 104.417 208.315 108.784C205.929 113.449 202.522 117.365 198.189 120.429C193.735 123.572 188.132 125.421 181.529 125.926Z" fill="white"/>
<path d="M220.196 121.358C216.659 121.629 213.316 120.302 210.78 117.621C209.041 115.786 207.553 113.423 206.369 110.604C205.337 108.152 204.498 105.381 203.884 102.375C203.329 99.6887 202.861 97.0305 202.494 94.4856C202.124 91.9484 201.85 89.5285 201.68 87.3003L200.899 77.0955C200.702 74.5201 200.576 71.7334 200.526 68.8113C200.47 65.7886 200.57 62.6641 200.822 59.5293C201.084 56.1991 201.624 53.0435 202.424 50.1573C203.362 46.7854 204.794 43.8958 206.677 41.5665C206.856 41.347 207.039 41.1334 207.227 40.9258C207.091 40.8564 206.954 40.782 206.82 40.7075C203.468 38.825 201.451 35.547 201.139 31.4775C200.941 28.8786 201.449 26.4487 202.653 24.255C203.647 22.4441 204.95 20.8876 206.528 19.6319C207.952 18.4914 209.607 17.5666 211.432 16.8919C213.162 16.2506 214.908 15.8575 216.616 15.7269C219.373 15.5158 222.022 15.9903 224.49 17.136C228.157 18.8484 230.439 22.2957 230.768 26.5984C230.962 29.1304 230.41 31.6071 229.172 33.7598C228.21 35.4336 226.924 36.9427 225.351 38.2466C225.188 38.3826 225.022 38.515 224.854 38.6451C226.244 39.655 227.47 40.9818 228.47 42.5952C230.14 45.2911 231.482 48.4574 232.459 52.0095C233.361 55.2943 233.992 58.6184 234.337 61.8959C234.653 64.9087 234.865 67.1349 234.976 68.577L235.255 72.2274C235.366 73.6757 235.423 75.0595 235.432 76.3746C235.452 77.5505 235.549 79.3091 235.718 81.5237C235.908 84.0023 236.027 86.7097 236.072 89.5698C236.116 92.4787 236.057 95.4529 235.893 98.4138C235.71 101.714 235.225 104.826 234.451 107.664C233.548 110.969 232.151 113.804 230.298 116.091C227.917 119.043 224.611 120.849 220.747 121.303C220.613 121.32 220.404 121.342 220.196 121.358Z" fill="white"/>
<path d="M248.616 122.037C244.454 122.356 240.5 120.622 237.482 117.153C235.388 114.753 233.581 111.68 232.117 108.026C230.827 104.815 229.676 101.171 228.699 97.2027C227.752 93.3627 226.977 89.5655 226.395 85.9171C225.833 82.4092 225.363 79.0865 225.001 76.0436C224.636 72.9958 224.401 70.7376 224.289 69.272C224.164 67.6377 224.045 65.2671 223.937 62.1623C223.827 59.0028 223.851 55.5562 224.005 51.9187C224.158 48.2664 224.462 44.4903 224.906 40.7009C225.379 36.6586 226.151 32.8791 227.205 29.4709C228.362 25.7205 229.928 22.4963 231.857 19.8929C234.531 16.2821 238.195 14.2007 242.453 13.8748C246.367 13.5754 249.887 14.8837 252.366 17.56C254.088 19.4201 255.392 21.685 256.247 24.2961C256.926 26.3794 257.411 28.5922 257.691 30.8807C257.93 32.8555 258.102 34.541 258.21 35.9434C258.564 40.5696 258.728 45.2927 258.7 49.9807C258.675 54.3017 258.83 58.6801 259.16 62.9951C259.594 68.6654 260.218 74.4135 261.013 80.0774C261.848 86.0176 262.507 92.101 262.971 98.1606C263.1 99.842 263.152 101.741 263.127 103.805C263.095 106.342 262.727 108.761 262.034 110.999C261.207 113.681 259.8 116.043 257.854 118.009C256.224 119.65 253.304 121.678 248.616 122.037Z" fill="white"/>
<path d="M279.765 68.4338C279.682 68.9926 279.638 69.5897 279.634 70.2211C279.626 71.5163 279.655 72.6166 279.722 73.4883C279.764 74.0401 279.887 75.1444 280.235 77.2718C280.494 78.8708 280.882 80.5037 281.388 82.1275C281.516 82.5393 281.653 82.9304 281.797 83.301C281.893 83.2251 281.988 83.1467 282.08 83.0661C282.718 82.5159 283.326 81.9032 283.893 81.2398L284.121 80.9742C284.012 79.7877 283.888 78.6211 283.747 77.4744C283.573 76.0398 283.441 74.5632 283.355 73.0681C283.027 72.512 282.677 71.9301 282.303 71.3215C281.831 70.5593 281.256 69.8326 280.602 69.173C280.327 68.8971 280.05 68.6514 279.765 68.4338ZM280.391 118.111C274.93 118.529 269.808 116.921 265.577 113.46C262.071 110.596 259.047 107.018 256.592 102.829C254.271 98.88 252.424 94.6424 251.1 90.235C249.776 85.8214 249.004 82.0141 248.743 78.5955C248.569 76.3277 248.505 73.7271 248.554 70.8697C248.604 67.9275 248.86 64.8859 249.312 61.8281C249.769 58.7461 250.446 55.6797 251.324 52.7115C252.29 49.4447 253.642 46.4153 255.342 43.7084C257.202 40.7449 259.552 38.264 262.322 36.3345C265.353 34.2268 268.898 33.0026 272.859 32.6995C275.812 32.4734 278.728 32.8378 281.569 33.7865L281.453 27.9234C281.415 26.3312 281.396 24.4243 281.402 22.2363C281.405 19.6793 281.651 17.1747 282.131 14.7957C282.727 11.8478 283.876 9.21934 285.549 6.98594C287.136 4.86897 290.149 2.2624 295.506 1.85246C299.614 1.53808 303.11 2.43668 305.901 4.52294C308.283 6.30878 310.115 8.64683 311.351 11.4757C312.358 13.7808 313.054 16.3055 313.422 18.9801C313.721 21.1499 313.948 23.2415 314.098 25.1969C314.568 31.3459 314.808 37.5748 314.81 43.711C314.81 49.4681 315.036 55.3414 315.482 61.1705C315.844 65.8947 316.346 70.6119 316.978 75.1932C317.649 80.0771 318.182 85.0751 318.563 90.051C318.67 91.4521 318.755 93.1431 318.82 95.1212C318.895 97.4727 318.726 99.7942 318.319 102.035C317.815 104.813 316.785 107.308 315.255 109.454C313.754 111.562 310.906 114.16 305.871 114.545C301.915 114.848 298.293 113.732 295.304 111.309C294.778 111.801 294.231 112.278 293.663 112.741C289.74 115.932 285.275 117.737 280.391 118.111Z" fill="white"/>
<path d="M52.6083 134.051C49.186 134.313 46.0835 132.039 45.3038 128.696L44.9829 127.321L44.8894 128.675C44.6516 132.12 41.9236 134.869 38.4802 135.133L25.3615 136.137C21.8747 136.403 18.7331 134.041 18.021 130.619L2.70069 57.0448C2.2938 55.0854 2.74765 53.0464 3.951 51.4464C5.15196 49.8479 6.98591 48.8444 8.97976 48.6918L21.8245 47.7088C24.2684 47.5218 26.5393 48.6264 27.9257 50.4772C29.0291 48.4845 31.0828 47.0926 33.4821 46.909L43.6659 46.1296C46.1569 45.939 48.4777 47.0921 49.8576 49.022C50.9094 46.8587 53.049 45.3192 55.5847 45.1252L68.2447 44.1563C70.2385 44.0037 72.2 44.7154 73.6327 46.1124C75.0627 47.5071 75.8252 49.4518 75.7223 51.4478L71.8678 126.489C71.6888 129.984 68.9422 132.801 65.4518 133.068L52.6083 134.051Z" fill="white"/>
<path d="M74.0757 132.409C70.2455 132.702 66.903 129.835 66.6099 126.004L60.9228 51.6926C60.6297 47.8624 63.4969 44.5199 67.3272 44.2268L99.7123 41.7484C103.543 41.4552 106.886 44.3224 107.179 48.1526L107.98 58.6116C108.273 62.4418 105.404 65.7844 101.574 66.0775L91.2628 66.8667L91.7108 72.7205L98.0779 72.2332C101.907 71.9402 105.251 74.8073 105.544 78.6375L106.351 89.1883C106.644 93.0186 103.776 96.3611 99.9469 96.6541L93.5797 97.1414L94.3015 106.574L104.797 105.771C108.627 105.477 111.969 108.345 112.262 112.175L113.049 122.45C113.342 126.281 110.475 129.623 106.644 129.916L74.0757 132.409Z" fill="white"/>
<path d="M132.41 83.6431C132.334 82.6537 132.19 81.5871 131.979 80.4421C131.767 79.2959 131.395 78.2456 130.866 77.292C130.337 76.3372 129.656 75.5599 128.822 74.959C127.987 74.3594 126.952 74.1068 125.716 74.2014C124.395 74.3025 123.119 74.692 121.886 75.3675C120.651 76.0408 119.492 76.8765 118.407 77.8725C117.321 78.8686 116.324 79.919 115.413 81.0239C114.503 82.1313 113.715 83.2068 113.049 84.253L112.654 95.3561C114.117 97.1536 115.84 98.5346 117.823 99.5029C119.804 100.47 121.99 100.864 124.382 100.681C126.195 100.542 127.658 99.8515 128.766 98.6031C129.871 97.3585 130.711 95.8637 131.284 94.1187C131.855 92.3738 132.211 90.5443 132.356 88.6224C132.499 86.707 132.517 85.0455 132.41 83.6431ZM150.309 78.5404C150.492 80.9336 150.513 83.6472 150.372 86.6849C150.232 89.7251 149.889 92.8407 149.345 96.0341C148.801 99.2274 148.004 102.357 146.954 105.423C145.902 108.49 144.541 111.27 142.864 113.759C141.189 116.252 139.187 118.295 136.862 119.881C134.538 121.468 131.768 122.386 128.552 122.632C125.168 122.891 122.038 122.341 119.155 120.988C116.273 119.632 113.739 117.669 111.552 115.1C111.475 117.345 110.717 119.374 109.28 121.182C107.842 122.991 105.927 123.989 103.537 124.172C102.134 124.28 100.905 123.67 99.8508 122.34C98.7937 121.011 97.8939 119.276 97.1514 117.135C96.4062 114.993 95.7878 112.616 95.2981 109.998C94.806 107.382 94.4257 104.841 94.1544 102.372C93.8832 99.9032 93.6719 97.6806 93.5204 95.7004L93.1987 91.4969C92.9841 88.6934 92.7881 85.8872 92.6157 83.0804C92.4422 80.275 92.2865 77.4258 92.1485 74.5315C92.0412 73.1291 91.8593 71.029 91.6038 68.2286C91.3458 65.4272 91.1299 62.3132 90.951 58.8833C90.7711 55.4572 90.6875 51.9365 90.7031 48.3271C90.7164 44.7191 90.9814 41.4025 91.4968 38.3759C92.0112 35.3507 92.8567 32.8402 94.0308 30.8409C95.2038 28.8453 96.8193 27.7252 98.8739 27.4856C100.523 27.3594 101.968 27.83 103.212 28.896C104.455 29.9633 105.54 31.4131 106.47 33.2489C107.398 35.0861 108.179 37.1604 108.811 39.4767C109.445 41.7917 109.955 44.1174 110.342 46.4513C110.727 48.7865 111.021 51.0028 111.224 53.1038C111.425 55.2024 111.578 56.9119 111.678 58.2312C111.697 58.4792 111.719 59.0363 111.744 59.9062C111.768 60.7736 111.82 61.7039 111.895 62.6946L112.099 65.3518L112.198 66.6525C112.82 65.0285 113.774 63.4201 115.064 61.8297C116.352 60.237 117.818 58.799 119.462 57.5096C121.106 56.2238 122.846 55.1365 124.687 54.2486C126.526 53.3633 128.311 52.8524 130.044 52.7199C133.507 52.4548 136.481 53.119 138.968 54.7122C141.453 56.3068 143.5 58.4088 145.112 61.0219C146.721 63.6351 147.936 66.5105 148.756 69.6382C149.577 72.7707 150.094 75.7381 150.309 78.5404Z" fill="#04D5C9"/>
<path d="M206.113 79.7438C206.46 84.2796 206.35 88.8067 205.784 93.3312C205.216 97.8522 203.997 101.949 202.121 105.617C200.244 109.288 197.596 112.329 194.174 114.749C190.75 117.166 186.358 118.581 180.999 118.991C175.721 119.395 171.227 118.68 167.521 116.85C163.815 115.019 160.778 112.452 158.411 109.149C156.043 105.847 154.259 102.043 153.058 97.738C151.858 93.4359 151.084 89.0151 150.737 84.4794C150.358 79.5319 150.56 74.5825 151.343 69.6285C151.489 68.2916 151.822 66.4177 152.344 64.013C152.863 61.611 153.595 59.2327 154.534 56.8784C155.474 54.5266 156.601 52.4709 157.92 50.71C159.234 48.9518 160.761 48.0044 162.493 47.8718C164.141 47.7457 165.495 48.0986 166.555 48.9304C167.614 49.7623 168.483 50.8358 169.165 52.1518C169.845 53.468 170.327 54.8841 170.61 56.3952C170.892 57.909 171.079 59.2841 171.174 60.5215C171.319 62.4174 171.317 64.2846 171.167 66.1196C171.016 67.9571 170.846 69.796 170.656 71.634C170.514 74.1318 170.395 76.6291 170.297 79.1261C170.196 81.6208 170.242 84.1054 170.432 86.5803C170.526 87.8178 170.693 89.1945 170.934 90.7089C171.175 92.2283 171.595 93.6678 172.198 95.0297C172.799 96.3956 173.59 97.5162 174.57 98.3953C175.549 99.2733 176.862 99.6504 178.513 99.5241C180.657 99.3601 182.324 98.6525 183.515 97.399C184.704 96.1481 185.542 94.6297 186.028 92.8514C186.514 91.0718 186.762 89.187 186.778 87.1965C186.79 85.2037 186.734 83.3846 186.608 81.7342C186.33 78.1061 185.811 74.5601 185.046 71.0914C184.283 67.6252 183.557 64.0951 182.867 60.496C182.753 60.0919 182.667 59.5172 182.611 58.7745C182.516 57.537 182.627 56.2838 182.945 55.0147C183.262 53.7482 183.755 52.5893 184.421 51.543C185.088 50.4979 185.934 49.625 186.958 48.9243C187.981 48.2236 189.153 47.8221 190.475 47.7209C192.288 47.5822 193.944 48.099 195.445 49.2687C196.945 50.4424 198.245 52.0004 199.349 53.9476C200.451 55.8963 201.41 58.1028 202.22 60.5714C203.031 63.0387 203.715 65.4746 204.273 67.8777C204.829 70.2834 205.252 72.5522 205.54 74.6866C205.828 76.8222 206.018 78.5064 206.113 79.7438Z" fill="#04D5C9"/>
<path d="M223.835 27.1294C223.923 28.285 223.693 29.339 223.144 30.294C222.595 31.2478 221.853 32.114 220.916 32.8892C219.981 33.6666 218.949 34.2844 217.822 34.7435C216.696 35.2014 215.639 35.4706 214.651 35.5463C212.999 35.6727 211.526 35.3701 210.225 34.6402C208.926 33.9115 208.21 32.6779 208.078 30.9469C207.983 29.7094 208.208 28.5959 208.754 27.6C209.301 26.6041 210.001 25.761 210.862 25.0752C211.721 24.3871 212.715 23.8333 213.846 23.415C214.974 22.9982 216.075 22.7456 217.148 22.6634C218.712 22.5438 220.185 22.8052 221.562 23.4444C222.936 24.0876 223.696 25.3166 223.835 27.1294ZM228.041 69.1081L228.321 72.7585C228.419 74.0369 228.471 75.2564 228.477 76.4171C228.501 77.8246 228.604 79.7038 228.784 82.0547C228.964 84.4045 229.076 86.9464 229.119 89.6795C229.161 92.4127 229.106 95.197 228.95 98.0289C228.793 100.862 228.389 103.464 227.743 105.834C227.094 108.206 226.146 110.168 224.895 111.713C223.645 113.262 221.991 114.154 219.938 114.395C218.377 114.597 217.009 114.081 215.838 112.842C214.665 111.606 213.646 109.962 212.785 107.912C211.923 105.864 211.227 103.552 210.7 100.98C210.17 98.4085 209.729 95.9116 209.379 93.4901C209.029 91.0736 208.775 88.8318 208.617 86.7698L208.267 82.1944L207.836 76.565C207.65 74.1334 207.531 71.5084 207.482 68.6922C207.431 65.8749 207.523 63.0067 207.757 60.084C207.987 57.1641 208.447 54.4774 209.13 52.0179C209.813 49.5611 210.797 47.5364 212.086 45.9435C213.374 44.3533 215.089 43.4749 217.236 43.3107C219.461 43.1403 221.235 44.1246 222.561 46.2619C223.885 48.3993 224.95 50.9319 225.755 53.8562C226.558 56.7818 227.115 59.7051 227.422 62.6238C227.728 65.5463 227.934 67.7082 228.041 69.1081Z" fill="#04D5C9"/>
<path d="M251.275 36.474C251.616 40.9279 251.774 45.4145 251.746 49.9391C251.72 54.4622 251.878 58.99 252.226 63.5257C252.674 69.382 253.309 75.2215 254.126 81.0446C254.947 86.8737 255.582 92.7543 256.037 98.6912C256.15 100.175 256.196 101.852 256.173 103.721C256.149 105.588 255.89 107.331 255.391 108.942C254.892 110.559 254.067 111.948 252.911 113.115C251.756 114.28 250.146 114.943 248.087 115.101C246.108 115.252 244.321 114.413 242.731 112.586C241.14 110.762 239.754 108.379 238.576 105.439C237.396 102.502 236.356 99.2033 235.453 95.5395C234.551 91.8744 233.821 88.3034 233.265 84.82C232.707 81.3381 232.256 78.1386 231.908 75.2193C231.56 72.3037 231.333 70.1422 231.226 68.741C231.106 67.1737 230.993 64.8999 230.89 61.922C230.787 58.944 230.807 55.7084 230.957 52.2135C231.103 48.7189 231.39 45.1486 231.816 41.5102C232.241 37.8695 232.92 34.5398 233.852 31.5239C234.781 28.5093 235.981 26.0129 237.447 24.0336C238.913 22.0555 240.758 20.9802 242.986 20.8097C244.799 20.6709 246.226 21.1666 247.266 22.2881C248.305 23.4097 249.096 24.8021 249.638 26.4594C250.179 28.1191 250.562 29.8722 250.788 31.7219C251.011 33.572 251.174 35.1559 251.275 36.474Z" fill="#04D5C9"/>
<path d="M291.205 82.1909C291.06 80.295 290.874 78.4421 290.655 76.6329C290.433 74.8265 290.291 72.9703 290.229 71.068C289.652 70.0358 288.984 68.9033 288.227 67.6742C287.469 66.4487 286.574 65.3137 285.542 64.2727C284.507 63.2331 283.384 62.3849 282.174 61.7304C280.962 61.0761 279.696 60.8 278.378 60.9009C276.892 61.0146 275.732 61.5599 274.895 62.5357C274.055 63.5141 273.48 64.6557 273.167 65.9643C272.85 67.2769 272.689 68.6761 272.679 70.1711C272.67 71.6647 272.706 72.9491 272.788 74.0192C272.863 75.0087 273.057 76.4668 273.371 78.3922C273.684 80.3189 274.144 82.2518 274.749 84.1948C275.352 86.1405 276.124 87.8237 277.063 89.2435C278 90.666 279.171 91.3235 280.573 91.2162C281.643 91.1343 282.698 90.824 283.737 90.288C284.773 89.7548 285.74 89.0996 286.635 88.3251C287.528 87.5522 288.377 86.699 289.177 85.7659C289.976 84.8354 290.675 83.9737 291.28 83.1803L291.205 82.1909ZM307.163 25.7265C307.624 31.7478 307.853 37.7443 307.856 43.7145C307.856 49.6862 308.088 55.685 308.548 61.7013C308.921 66.5694 309.433 71.3831 310.089 76.1422C310.742 80.9027 311.257 85.7163 311.629 90.5818C311.73 91.8999 311.808 93.4904 311.871 95.3527C311.928 97.2141 311.798 99.0276 311.478 100.794C311.156 102.56 310.527 104.102 309.591 105.416C308.654 106.733 307.239 107.463 305.343 107.609C302.869 107.798 300.757 107.027 299.007 105.296C297.257 103.563 296.087 101.558 295.498 99.2797C294.158 102.369 292.084 105.057 289.272 107.347C286.461 109.632 283.324 110.91 279.861 111.175C276.151 111.459 272.856 110.426 269.981 108.076C267.106 105.724 264.642 102.805 262.591 99.3098C260.541 95.8174 258.932 92.1252 257.763 88.2336C256.594 84.3394 255.901 80.9527 255.68 78.0648C255.522 76.0065 255.465 73.6461 255.51 70.9886C255.556 68.3298 255.784 65.6171 256.194 62.8468C256.605 60.079 257.205 57.3578 257.997 54.6855C258.786 52.011 259.864 49.5874 261.234 47.4072C262.6 45.231 264.289 43.4417 266.297 42.0446C268.305 40.6461 270.67 39.8428 273.392 39.6345C276.36 39.4074 279.271 40.0539 282.124 41.578C284.978 43.1006 287.203 45.0905 288.801 47.5363L288.409 27.7841C288.371 26.213 288.355 24.3684 288.36 22.2515C288.363 20.1372 288.559 18.1129 288.951 16.1722C289.343 14.2352 290.064 12.5624 291.119 11.1534C292.171 9.74954 293.812 8.95798 296.038 8.78765C298.428 8.60469 300.329 9.04045 301.736 10.0939C303.144 11.1486 304.226 12.5375 304.98 14.262C305.735 15.9891 306.251 17.8778 306.532 19.9278C306.815 21.9815 307.024 23.9137 307.163 25.7265Z" fill="#04D5C9"/>
<path d="M24.8312 129.201L9.51226 55.6272L22.3557 54.6443L30.9682 99.6633L34.0134 53.8444L44.1971 53.0651L54.4472 97.7742L56.116 52.0606L68.776 51.0918L64.9227 126.132L52.078 127.115L41.2288 80.6075L37.9512 128.197L24.8312 129.201Z" fill="#FDC332"/>
<path d="M73.543 125.472L67.856 51.1619L100.241 48.6834L101.042 59.1412L83.7937 60.4612L85.3033 80.1864L98.6068 79.1683L99.4141 89.7178L86.1106 90.7359L87.8941 114.04L105.325 112.706L106.112 122.98L73.543 125.472Z" fill="#FDC332"/>
</svg>
